<mxfile host="drawio-plugin" modified="2025-05-21T13:06:03.653Z" agent="Mozilla/5.0 (X11; Linux x86_64) AppleWebKit/537.36 (KHTML, like Gecko) Chrome/122.0.0.0 Safari/537.36" etag="R1Yp00NpUlE-aPwYHNb5" version="22.1.22" type="embed" pages="2">
  <diagram id="fz-6R8tx3eM5kRc7ZHRC" name="General">
    <mxGraphModel dx="1352" dy="726" grid="1" gridSize="10" guides="1" tooltips="1" connect="1" arrows="1" fold="1" page="1" pageScale="1" pageWidth="850" pageHeight="1100" math="0" shadow="0">
      <root>
        <mxCell id="0" />
        <mxCell id="1" parent="0" />
        <mxCell id="11" value="&lt;h1&gt;Docker web UI&lt;/h1&gt;&lt;p&gt;&lt;b&gt;Goal&lt;/b&gt;: Creation of a portainer like web ui for docker with the focus on docker compose&lt;/p&gt;&lt;p&gt;&lt;b&gt;Features:&amp;nbsp;&lt;/b&gt;&lt;/p&gt;&lt;p&gt;&lt;b&gt;-&amp;nbsp; &lt;/b&gt;See your docker deployments&lt;/p&gt;&lt;p&gt;- Create and mange Docker compose files&lt;/p&gt;&lt;p&gt;- GitOps integration&lt;/p&gt;&lt;p&gt;&lt;br&gt;&lt;/p&gt;" style="text;html=1;strokeColor=none;fillColor=none;spacing=5;spacingTop=-20;whiteSpace=wrap;overflow=hidden;rounded=0;" parent="1" vertex="1">
          <mxGeometry x="70" y="100" width="270" height="220" as="geometry" />
        </mxCell>
        <mxCell id="12" value="" style="group" parent="1" vertex="1" connectable="0">
          <mxGeometry x="170" y="600" width="280" height="140" as="geometry" />
        </mxCell>
        <mxCell id="4" value="&lt;b&gt;App&lt;/b&gt; = Docker Compose File&amp;nbsp; &amp;nbsp; &amp;nbsp; &amp;nbsp; &amp;nbsp;" style="rounded=0;whiteSpace=wrap;html=1;fillColor=#ffe6cc;strokeColor=#d79b00;" parent="12" vertex="1">
          <mxGeometry width="280" height="140" as="geometry" />
        </mxCell>
        <mxCell id="5" value="Docker Container" style="rounded=0;whiteSpace=wrap;html=1;" parent="12" vertex="1">
          <mxGeometry x="155" width="120" height="60" as="geometry" />
        </mxCell>
        <mxCell id="6" value="Docker Container" style="rounded=0;whiteSpace=wrap;html=1;" parent="12" vertex="1">
          <mxGeometry x="155" y="80" width="120" height="60" as="geometry" />
        </mxCell>
        <mxCell id="13" value="&lt;h1&gt;Structure&lt;/h1&gt;" style="text;html=1;strokeColor=none;fillColor=none;spacing=5;spacingTop=-20;whiteSpace=wrap;overflow=hidden;rounded=0;" parent="1" vertex="1">
          <mxGeometry x="80" y="350" width="190" height="40" as="geometry" />
        </mxCell>
        <mxCell id="21" style="edgeStyle=orthogonalEdgeStyle;rounded=0;orthogonalLoop=1;jettySize=auto;html=1;exitX=0.5;exitY=1;exitDx=0;exitDy=0;exitPerimeter=0;" parent="1" source="16" target="4" edge="1">
          <mxGeometry relative="1" as="geometry" />
        </mxCell>
        <mxCell id="25" value="Store metadata&lt;br&gt;like, git connection, ..." style="edgeLabel;html=1;align=center;verticalAlign=middle;resizable=0;points=[];" vertex="1" connectable="0" parent="21">
          <mxGeometry x="-0.5677" y="2" relative="1" as="geometry">
            <mxPoint as="offset" />
          </mxGeometry>
        </mxCell>
        <mxCell id="16" value="DB" style="shape=cylinder3;whiteSpace=wrap;html=1;boundedLbl=1;backgroundOutline=1;size=15;" parent="1" vertex="1">
          <mxGeometry x="420" y="320" width="60" height="80" as="geometry" />
        </mxCell>
        <mxCell id="20" style="edgeStyle=orthogonalEdgeStyle;rounded=0;orthogonalLoop=1;jettySize=auto;html=1;exitX=0.5;exitY=1;exitDx=0;exitDy=0;exitPerimeter=0;entryX=0.25;entryY=0;entryDx=0;entryDy=0;" parent="1" source="18" target="4" edge="1">
          <mxGeometry relative="1" as="geometry">
            <Array as="points">
              <mxPoint x="330" y="430" />
              <mxPoint x="240" y="430" />
            </Array>
          </mxGeometry>
        </mxCell>
        <mxCell id="22" value="Store compose files&lt;br&gt;&amp;amp;&lt;br&gt;.env" style="edgeLabel;html=1;align=center;verticalAlign=middle;resizable=0;points=[];" parent="20" vertex="1" connectable="0">
          <mxGeometry x="0.1437" y="2" relative="1" as="geometry">
            <mxPoint as="offset" />
          </mxGeometry>
        </mxCell>
        <mxCell id="18" value="/storage" style="shape=cylinder3;whiteSpace=wrap;html=1;boundedLbl=1;backgroundOutline=1;size=15;" parent="1" vertex="1">
          <mxGeometry x="300" y="320" width="60" height="80" as="geometry" />
        </mxCell>
        <mxCell id="28" style="edgeStyle=orthogonalEdgeStyle;rounded=0;orthogonalLoop=1;jettySize=auto;html=1;exitX=0;exitY=0.5;exitDx=0;exitDy=0;exitPerimeter=0;entryX=1;entryY=0.5;entryDx=0;entryDy=0;entryPerimeter=0;" edge="1" parent="1" source="26" target="18">
          <mxGeometry relative="1" as="geometry" />
        </mxCell>
        <mxCell id="29" value="" style="group" vertex="1" connectable="0" parent="1">
          <mxGeometry x="370" y="180" width="120" height="120" as="geometry" />
        </mxCell>
        <mxCell id="27" value="" style="ellipse;shape=cloud;whiteSpace=wrap;html=1;" vertex="1" parent="29">
          <mxGeometry x="10" y="40" width="120" height="80" as="geometry" />
        </mxCell>
        <mxCell id="26" value="Git" style="shape=cylinder3;whiteSpace=wrap;html=1;boundedLbl=1;backgroundOutline=1;size=15;" vertex="1" parent="29">
          <mxGeometry x="40" width="60" height="80" as="geometry" />
        </mxCell>
      </root>
    </mxGraphModel>
  </diagram>
  <diagram id="W_Dx8a7bmo2TOVcDa2ck" name="Dataflow">
    <mxGraphModel dx="2202" dy="1826" grid="1" gridSize="10" guides="1" tooltips="1" connect="1" arrows="1" fold="1" page="1" pageScale="1" pageWidth="850" pageHeight="1100" math="0" shadow="0">
      <root>
        <mxCell id="0" />
        <mxCell id="1" parent="0" />
        <mxCell id="IA-gAWa0xwI66yfd1e5Z-14" value="" style="group" vertex="1" connectable="0" parent="1">
          <mxGeometry x="-260" y="170" width="120" height="120" as="geometry" />
        </mxCell>
        <mxCell id="IA-gAWa0xwI66yfd1e5Z-15" value="" style="ellipse;shape=cloud;whiteSpace=wrap;html=1;" vertex="1" parent="IA-gAWa0xwI66yfd1e5Z-14">
          <mxGeometry x="10" y="40" width="120" height="80" as="geometry" />
        </mxCell>
        <mxCell id="IA-gAWa0xwI66yfd1e5Z-16" value="Git" style="shape=cylinder3;whiteSpace=wrap;html=1;boundedLbl=1;backgroundOutline=1;size=15;" vertex="1" parent="IA-gAWa0xwI66yfd1e5Z-14">
          <mxGeometry x="40" y="10" width="60" height="80" as="geometry" />
        </mxCell>
        <mxCell id="IA-gAWa0xwI66yfd1e5Z-18" value="Backend" style="swimlane;whiteSpace=wrap;html=1;" vertex="1" parent="1">
          <mxGeometry x="20" y="30" width="785" height="630" as="geometry" />
        </mxCell>
        <mxCell id="JMlVOcXLHEeOnAD0QDdr-6" style="edgeStyle=orthogonalEdgeStyle;rounded=0;orthogonalLoop=1;jettySize=auto;html=1;exitX=0.855;exitY=1;exitDx=0;exitDy=-4.35;exitPerimeter=0;entryX=0.5;entryY=0;entryDx=0;entryDy=0;" edge="1" parent="IA-gAWa0xwI66yfd1e5Z-18" source="IA-gAWa0xwI66yfd1e5Z-9" target="JMlVOcXLHEeOnAD0QDdr-2">
          <mxGeometry relative="1" as="geometry" />
        </mxCell>
        <mxCell id="JMlVOcXLHEeOnAD0QDdr-11" style="edgeStyle=orthogonalEdgeStyle;rounded=0;orthogonalLoop=1;jettySize=auto;html=1;exitX=1;exitY=0;exitDx=0;exitDy=52.5;exitPerimeter=0;entryX=0.25;entryY=0;entryDx=0;entryDy=0;" edge="1" parent="IA-gAWa0xwI66yfd1e5Z-18" source="IA-gAWa0xwI66yfd1e5Z-9" target="JMlVOcXLHEeOnAD0QDdr-10">
          <mxGeometry relative="1" as="geometry" />
        </mxCell>
        <mxCell id="IA-gAWa0xwI66yfd1e5Z-9" value="DB" style="shape=cylinder3;whiteSpace=wrap;html=1;boundedLbl=1;backgroundOutline=1;size=15;" vertex="1" parent="IA-gAWa0xwI66yfd1e5Z-18">
          <mxGeometry x="50" y="40" width="60" height="80" as="geometry" />
        </mxCell>
        <mxCell id="IA-gAWa0xwI66yfd1e5Z-12" value="/storage" style="shape=cylinder3;whiteSpace=wrap;html=1;boundedLbl=1;backgroundOutline=1;size=15;" vertex="1" parent="IA-gAWa0xwI66yfd1e5Z-18">
          <mxGeometry x="680" y="30" width="60" height="80" as="geometry" />
        </mxCell>
        <mxCell id="IA-gAWa0xwI66yfd1e5Z-28" value="" style="edgeStyle=orthogonalEdgeStyle;rounded=0;orthogonalLoop=1;jettySize=auto;html=1;" edge="1" parent="IA-gAWa0xwI66yfd1e5Z-18" source="IA-gAWa0xwI66yfd1e5Z-19" target="IA-gAWa0xwI66yfd1e5Z-27">
          <mxGeometry relative="1" as="geometry" />
        </mxCell>
        <mxCell id="IA-gAWa0xwI66yfd1e5Z-19" value="Router" style="shape=trapezoid;perimeter=trapezoidPerimeter;whiteSpace=wrap;html=1;fixedSize=1;" vertex="1" parent="IA-gAWa0xwI66yfd1e5Z-18">
          <mxGeometry x="40" y="540" width="120" height="60" as="geometry" />
        </mxCell>
        <mxCell id="IA-gAWa0xwI66yfd1e5Z-22" value="Functions" style="swimlane;whiteSpace=wrap;html=1;" vertex="1" parent="IA-gAWa0xwI66yfd1e5Z-18">
          <mxGeometry x="40" y="140" width="390" height="290" as="geometry">
            <mxRectangle x="40" y="140" width="100" height="30" as="alternateBounds" />
          </mxGeometry>
        </mxCell>
        <mxCell id="JMlVOcXLHEeOnAD0QDdr-1" value="Setup" style="whiteSpace=wrap;html=1;aspect=fixed;" vertex="1" parent="IA-gAWa0xwI66yfd1e5Z-22">
          <mxGeometry x="50" y="50" width="80" height="80" as="geometry" />
        </mxCell>
        <mxCell id="JMlVOcXLHEeOnAD0QDdr-2" value="Show services" style="whiteSpace=wrap;html=1;aspect=fixed;" vertex="1" parent="IA-gAWa0xwI66yfd1e5Z-22">
          <mxGeometry x="170" y="50" width="80" height="80" as="geometry" />
        </mxCell>
        <mxCell id="JMlVOcXLHEeOnAD0QDdr-3" value="Delete Service" style="whiteSpace=wrap;html=1;aspect=fixed;" vertex="1" parent="IA-gAWa0xwI66yfd1e5Z-22">
          <mxGeometry x="280" y="50" width="80" height="80" as="geometry" />
        </mxCell>
        <mxCell id="JMlVOcXLHEeOnAD0QDdr-4" style="edgeStyle=orthogonalEdgeStyle;rounded=0;orthogonalLoop=1;jettySize=auto;html=1;exitX=0.5;exitY=0;exitDx=0;exitDy=0;" edge="1" parent="IA-gAWa0xwI66yfd1e5Z-18" source="IA-gAWa0xwI66yfd1e5Z-27">
          <mxGeometry relative="1" as="geometry">
            <mxPoint x="160" y="430" as="targetPoint" />
            <Array as="points">
              <mxPoint x="160" y="440" />
            </Array>
          </mxGeometry>
        </mxCell>
        <mxCell id="IA-gAWa0xwI66yfd1e5Z-27" value="Permission&lt;br&gt;&amp;nbsp;check" style="shape=parallelogram;perimeter=parallelogramPerimeter;whiteSpace=wrap;html=1;fixedSize=1;" vertex="1" parent="IA-gAWa0xwI66yfd1e5Z-18">
          <mxGeometry x="60" y="440" width="120" height="60" as="geometry" />
        </mxCell>
        <mxCell id="JMlVOcXLHEeOnAD0QDdr-5" style="edgeStyle=orthogonalEdgeStyle;rounded=0;orthogonalLoop=1;jettySize=auto;html=1;exitX=0.5;exitY=0;exitDx=0;exitDy=0;entryX=0.5;entryY=1;entryDx=0;entryDy=0;entryPerimeter=0;" edge="1" parent="IA-gAWa0xwI66yfd1e5Z-18" source="JMlVOcXLHEeOnAD0QDdr-1" target="IA-gAWa0xwI66yfd1e5Z-9">
          <mxGeometry relative="1" as="geometry" />
        </mxCell>
        <mxCell id="JMlVOcXLHEeOnAD0QDdr-7" style="edgeStyle=orthogonalEdgeStyle;rounded=0;orthogonalLoop=1;jettySize=auto;html=1;exitX=0.75;exitY=0;exitDx=0;exitDy=0;entryX=0;entryY=0.5;entryDx=0;entryDy=0;entryPerimeter=0;fillColor=#dae8fc;strokeColor=#6c8ebf;" edge="1" parent="IA-gAWa0xwI66yfd1e5Z-18" source="JMlVOcXLHEeOnAD0QDdr-1" target="IA-gAWa0xwI66yfd1e5Z-12">
          <mxGeometry relative="1" as="geometry" />
        </mxCell>
        <mxCell id="JMlVOcXLHEeOnAD0QDdr-8" value="Scheduler" style="swimlane;whiteSpace=wrap;html=1;" vertex="1" parent="IA-gAWa0xwI66yfd1e5Z-18">
          <mxGeometry x="470" y="185" width="200" height="200" as="geometry" />
        </mxCell>
        <mxCell id="JMlVOcXLHEeOnAD0QDdr-10" value="Run Apps" style="whiteSpace=wrap;html=1;aspect=fixed;" vertex="1" parent="JMlVOcXLHEeOnAD0QDdr-8">
          <mxGeometry x="30" y="35" width="80" height="80" as="geometry" />
        </mxCell>
        <mxCell id="JMlVOcXLHEeOnAD0QDdr-9" value="" style="endArrow=classic;html=1;rounded=0;exitX=0;exitY=1;exitDx=0;exitDy=-15;exitPerimeter=0;entryX=0.75;entryY=0;entryDx=0;entryDy=0;fillColor=#dae8fc;strokeColor=#6c8ebf;" edge="1" parent="IA-gAWa0xwI66yfd1e5Z-18" source="IA-gAWa0xwI66yfd1e5Z-12" target="JMlVOcXLHEeOnAD0QDdr-10">
          <mxGeometry width="50" height="50" relative="1" as="geometry">
            <mxPoint x="580" y="150" as="sourcePoint" />
            <mxPoint x="630" y="100" as="targetPoint" />
            <Array as="points">
              <mxPoint x="560" y="95" />
            </Array>
          </mxGeometry>
        </mxCell>
        <mxCell id="JMlVOcXLHEeOnAD0QDdr-12" style="edgeStyle=orthogonalEdgeStyle;rounded=0;orthogonalLoop=1;jettySize=auto;html=1;exitX=0.5;exitY=0;exitDx=0;exitDy=0;entryX=1;entryY=0;entryDx=0;entryDy=15;entryPerimeter=0;" edge="1" parent="IA-gAWa0xwI66yfd1e5Z-18" source="JMlVOcXLHEeOnAD0QDdr-10" target="IA-gAWa0xwI66yfd1e5Z-9">
          <mxGeometry relative="1" as="geometry">
            <Array as="points">
              <mxPoint x="540" y="60" />
              <mxPoint x="110" y="60" />
            </Array>
          </mxGeometry>
        </mxCell>
        <mxCell id="JMlVOcXLHEeOnAD0QDdr-13" value="State" style="edgeLabel;html=1;align=center;verticalAlign=middle;resizable=0;points=[];" vertex="1" connectable="0" parent="JMlVOcXLHEeOnAD0QDdr-12">
          <mxGeometry x="0.3403" y="-2" relative="1" as="geometry">
            <mxPoint as="offset" />
          </mxGeometry>
        </mxCell>
        <mxCell id="JMlVOcXLHEeOnAD0QDdr-14" style="edgeStyle=orthogonalEdgeStyle;rounded=0;orthogonalLoop=1;jettySize=auto;html=1;exitX=0;exitY=0.25;exitDx=0;exitDy=0;entryX=1;entryY=0.5;entryDx=0;entryDy=0;entryPerimeter=0;" edge="1" parent="1" source="JMlVOcXLHEeOnAD0QDdr-1" target="IA-gAWa0xwI66yfd1e5Z-16">
          <mxGeometry relative="1" as="geometry" />
        </mxCell>
        <mxCell id="JMlVOcXLHEeOnAD0QDdr-15" value="Push" style="edgeLabel;html=1;align=center;verticalAlign=middle;resizable=0;points=[];" vertex="1" connectable="0" parent="JMlVOcXLHEeOnAD0QDdr-14">
          <mxGeometry x="0.2322" y="1" relative="1" as="geometry">
            <mxPoint as="offset" />
          </mxGeometry>
        </mxCell>
        <mxCell id="JMlVOcXLHEeOnAD0QDdr-16" style="edgeStyle=orthogonalEdgeStyle;rounded=0;orthogonalLoop=1;jettySize=auto;html=1;exitX=0.5;exitY=0;exitDx=0;exitDy=0;exitPerimeter=0;entryX=0.5;entryY=0;entryDx=0;entryDy=0;entryPerimeter=0;" edge="1" parent="1" source="IA-gAWa0xwI66yfd1e5Z-16" target="IA-gAWa0xwI66yfd1e5Z-12">
          <mxGeometry relative="1" as="geometry">
            <Array as="points">
              <mxPoint x="-190" />
              <mxPoint x="730" />
            </Array>
          </mxGeometry>
        </mxCell>
        <mxCell id="JMlVOcXLHEeOnAD0QDdr-17" value="Pull" style="edgeLabel;html=1;align=center;verticalAlign=middle;resizable=0;points=[];" vertex="1" connectable="0" parent="JMlVOcXLHEeOnAD0QDdr-16">
          <mxGeometry x="-0.0106" y="3" relative="1" as="geometry">
            <mxPoint x="26" y="3" as="offset" />
          </mxGeometry>
        </mxCell>
      </root>
    </mxGraphModel>
  </diagram>
</mxfile>
